<svg xmlns="http://www.w3.org/2000/svg" xmlns:xlink="http://www.w3.org/1999/xlink" width="500" height="356" viewBox="0 0 110 260.004">
  <defs>
    <clipPath id="clip-path">
      <rect id="Rectangle_1168" data-name="Rectangle 1168" width="110" height="260.004" fill="none"/>
    </clipPath>
  </defs>
  <g id="Group_131" data-name="Group 131" transform="translate(17039 4663)">
    <g id="Component" transform="translate(-17039 -4663)" clip-path="url(#clip-path)">
      <path id="Path_243" data-name="Path 243" d="M12.49,432.023H9.722c-.206,0-.292-.092-.292-.3v-7.257c0-.206-.086-.3-.3-.3H3.677c-.212,0-.3.091-.3.3v7.257c0,.206-.086.3-.3.3H.3c-.206,0-.3-.092-.3-.3V413.78c0-.206.092-.292.3-.292H3.082a.269.269,0,0,1,.3.223v7.069c0,.2.086.292.3.292H9.15c.212,0,.3-.092.3-.292v-7c0-.206.086-.292.292-.292H12.5c.206,0,.3.086.3.292v17.929C12.787,431.932,12.7,432.023,12.49,432.023Z" transform="translate(5 -177.019)" fill="#65beec"/>
      <path id="Path_244" data-name="Path 244" d="M45.8,432.038H44.327c-3.323,0-5.467-2.024-5.467-5.05v-8.43c0-3.014,2.173-5.038,5.467-5.038h1.435c3.294,0,5.467,2.025,5.467,5.038V427C51.253,430.013,49.08,432.038,45.8,432.038Zm2.087-13.479a2.024,2.024,0,0,0-2.013-2.047h-1.55a2.082,2.082,0,0,0-2.122,2.042v8.452a2.076,2.076,0,0,0,2.1,2.053h1.453a2.036,2.036,0,0,0,2.087-1.979v-.074Z" transform="translate(-11.636 -177.034)" fill="#65beec"/>
      <path id="Path_245" data-name="Path 245" d="M91.34,432.025h-2.7c-.212,0-.292-.092-.292-.3l.263-11.438-3.317,9c-.092.091-.177.183-.263.183h-1.5a.28.28,0,0,1-.263-.183L79.94,420.24l.263,11.438c0,.206-.086.3-.3.3H77.2c-.212,0-.3-.092-.3-.3v-17.9c0-.206.086-.292.3-.292h2.522a.653.653,0,0,1,.269.177L84.28,425.3l4.289-11.638a.652.652,0,0,1,.269-.177H91.36c.212,0,.3.086.3.292V431.71C91.638,431.933,91.552,432.025,91.34,432.025Z" transform="translate(-27.922 -177.021)" fill="#65beec"/>
      <path id="Path_246" data-name="Path 246" d="M130.811,432.022H120.437c-.206,0-.3-.091-.3-.3V413.779c0-.206.091-.292.3-.292h10.374a.252.252,0,0,1,.292.217.166.166,0,0,1,0,.074v2.5c0,.206-.086.292-.292.292h-6.994c-.206,0-.3.091-.3.3v3.912c0,.2.091.292.3.292h5.719c.206,0,.292.086.292.292v2.5c0,.206-.086.292-.292.292h-5.719c-.206,0-.3.091-.3.3v4.2c0,.2.092.292.3.292h6.994a.252.252,0,0,1,.292.217.166.166,0,0,1,0,.074v2.5C131.1,431.931,131.017,432.022,130.811,432.022Z" transform="translate(-46.434 -177.018)" fill="#65beec"/>
      <path id="Path_247" data-name="Path 247" d="M157.99,418.537c0,1.338,1.35,1.716,3.431,2.654,3.145,1.4,4.615,2.962,4.615,5.793,0,3.025-2.145,5.05-5.467,5.05h-1.144a5.143,5.143,0,0,1-3.82-1.344,4.229,4.229,0,0,1-1.355-2.082c0-.057.057-.137.177-.2l2.562-1.224a.206.206,0,0,1,.143,0c.206,0,.263.28.572.852a2.093,2.093,0,0,0,1.716,1.029h1.144a2.1,2.1,0,0,0,2.116-2.059c0-1.424-1.235-1.933-3.145-2.825-3.231-1.51-4.878-2.774-4.878-5.616,0-3.02,2.179-5.05,5.467-5.05h.44a5.548,5.548,0,0,1,3.351.944,4.809,4.809,0,0,1,1.882,2.425c0,.114-.057.172-.172.229l-2.562,1.253a.326.326,0,0,1-.149,0c-.143,0-.2-.172-.383-.429-.572-.909-1.052-1.424-1.967-1.424h-.44a2.076,2.076,0,0,0-2.133,2.024Z" transform="translate(-61.037 -177.029)" fill="#65beec"/>
      <rect id="Rectangle_1124" data-name="Rectangle 1124" width="100" height="199.068" transform="translate(5)" fill="#65beec"/>
      <path id="Path_248" data-name="Path 248" d="M67.557,267.453V232.74c0-5.37-.315-7.577-1.264-9.8a10.294,10.294,0,0,0-9.15-5.719c-5.719,0-10.111,4.575-10.111,10.591,0,6.165,4.266,10.586,10.294,10.586a14.442,14.442,0,0,0,5.532-1.1l0,29.865c-1.893.154-2.859.154-3.952.154-23.384,0-41.084-16.745-41.084-39.186,0-21.806,17.854-39.82,39.506-39.82,12.8,0,25.735,6.8,32.546,17.071,4.9,7.263,6.8,15.321,6.8,27.805v34.262Z" transform="translate(-2.629 -80.618)" fill="#4c565c"/>
      <path id="Path_249" data-name="Path 249" d="M13.394,391.417c0,.166-.114.257-.32.257H10.168c-.177,0-.257-.057-.286-.206l-.869-3.025c0-.143-.109-.177-.286-.177H4.615c-.177,0-.263.034-.292.177l-.864,3.02a.257.257,0,0,1-.286.206H.315c-.2,0-.315-.091-.315-.257V391.3l5.353-17.568a.269.269,0,0,1,.292-.2h2.07a.286.286,0,0,1,.292.2L13.365,391.3C13.365,391.36,13.394,391.389,13.394,391.417Zm-6.331-10.34c-.034-.172-.149-.686-.32-1.584H6.657c-.2.9-.315,1.413-.343,1.584l-.984,3.8v.114c0,.172.12.257.32.257h2.1c.2,0,.32-.086.32-.257v-.114Z" transform="translate(5 -159.912)" fill="#4c565c"/>
      <path id="Path_250" data-name="Path 250" d="M30.9,378.177c0,1.35,1.327,1.756,3.34,2.676,3.077,1.413,4.524,2.991,4.524,5.845,0,3.054-2.1,5.1-5.359,5.1H32.257a4.975,4.975,0,0,1-3.74-1.35,4.291,4.291,0,0,1-1.327-2.1.275.275,0,0,1,.172-.2l2.5-1.241a.246.246,0,0,1,.143-.029c.2,0,.257.286.572.864a2.03,2.03,0,0,0,1.716,1.041h1.144a2.087,2.087,0,0,0,2.076-2.076c0-1.441-1.212-1.956-3.088-2.859-3.163-1.521-4.775-2.814-4.775-5.667,0-3.054,2.133-5.1,5.359-5.1h.429a5.336,5.336,0,0,1,3.283.949,4.7,4.7,0,0,1,1.841,2.448.234.234,0,0,1-.172.229l-2.5,1.241a.3.3,0,0,1-.143,0c-.149,0-.206-.172-.372-.435-.572-.921-1.041-1.435-1.933-1.435h-.429a2.059,2.059,0,0,0-2.116,2Z" transform="translate(-6.64 -159.717)" fill="#4c565c"/>
      <path id="Path_251" data-name="Path 251" d="M63.654,391.662H60.943c-.2,0-.292-.092-.292-.286v-7.114c0-.206-.08-.286-.28-.286H55.013c-.2,0-.292.08-.292.286v7.114c0,.194-.086.286-.286.286H51.7c-.2,0-.292-.092-.292-.286V373.785c0-.194.092-.286.292-.286h2.734a.257.257,0,0,1,.286.223v6.926c0,.206.091.292.292.292h5.359c.2,0,.28-.086.28-.292v-6.863c0-.194.091-.286.292-.286h2.711c.2,0,.286.092.286.286v17.568C63.94,391.57,63.854,391.662,63.654,391.662Z" transform="translate(-17.009 -159.899)" fill="#4c565c"/>
      <path id="Path_252" data-name="Path 252" d="M88.933,376.541H82.07a.252.252,0,0,0-.292.206.217.217,0,0,0,0,.086v3.814c0,.206.091.292.292.292h5.61c.2,0,.292.086.292.286v2.453c0,.194-.092.286-.292.286H82.07c-.2,0-.292.08-.292.286v7.114c0,.194-.086.286-.286.286h-2.71c-.2,0-.292-.091-.292-.286v-17.58c0-.194.091-.286.292-.286h10.14a.263.263,0,0,1,.292.234v2.5C89.224,376.461,89.133,376.541,88.933,376.541Z" transform="translate(-28.603 -159.899)" fill="#4c565c"/>
      <path id="Path_253" data-name="Path 253" d="M107.351,391.773h-1.418c-3.254,0-5.353-2.042-5.353-5.1V378.18c0-3.054,2.127-5.1,5.353-5.1h1.418c3.22,0,5.353,2.042,5.353,5.1V386.7C112.7,389.732,110.571,391.773,107.351,391.773Zm2.047-13.588a2.019,2.019,0,0,0-1.967-2.07h-1.493a2.064,2.064,0,0,0-2.07,2.059v8.533a2.065,2.065,0,0,0,2.053,2.076h1.435a2.019,2.019,0,0,0,2.042-2.019Z" transform="translate(-38.06 -159.725)" fill="#4c565c"/>
      <path id="Path_254" data-name="Path 254" d="M138.927,391.39c0,.143-.086.229-.292.229h-2.962c-.086,0-.177-.057-.257-.206l-2.539-7.309-.229-.172h-2.562c-.206,0-.286.086-.286.286v7.114c0,.2-.086.286-.286.286h-2.728c-.206,0-.286-.086-.286-.286v-17.55c0-.2.08-.292.286-.292h6.479a4.994,4.994,0,0,1,5.359,5.359v.286a4.724,4.724,0,0,1-1.27,3.082c-.52.486-1.184.835-1.184,1.1h0l2.739,7.921a.332.332,0,0,1,.018.152Zm-3.6-12.816a2.1,2.1,0,0,0-2.07-2.07h-3.168c-.206,0-.286.086-.286.292v3.849c0,.2.08.286.286.286h3.168a2.082,2.082,0,0,0,2.07-2.07Z" transform="translate(-49.156 -159.896)" fill="#4c565c"/>
      <path id="Path_255" data-name="Path 255" d="M160.431,391.663h-6.479c-.2,0-.292-.091-.292-.286V373.786c0-.194.092-.286.292-.286h6.479a4.99,4.99,0,0,1,5.353,5.359v7.435a5,5,0,0,1-5.353,5.369Zm2.07-13.045a2.1,2.1,0,0,0-2.07-2.076h-3.145a.252.252,0,0,0-.292.206.217.217,0,0,0,0,.086v11.518a.252.252,0,0,0,.206.292h3.254a2.07,2.07,0,0,0,2.07-2.07v-7.955Z" transform="translate(-60.784 -159.901)" fill="#4c565c"/>
    </g>
  </g>
</svg>
