<?xml version="1.0" standalone="no"?>
<!DOCTYPE svg PUBLIC "-//W3C//DTD SVG 20010904//EN"
 "http://www.w3.org/TR/2001/REC-SVG-20010904/DTD/svg10.dtd">
<svg version="1.0" xmlns="http://www.w3.org/2000/svg"
 width="960.000000pt" height="960.000000pt" viewBox="0 0 960.000000 960.000000"
 preserveAspectRatio="xMidYMid meet">
<metadata>
Created by potrace 1.14, written by Peter Selinger 2001-2017
</metadata>
<g transform="translate(0.000000,960.000000) scale(0.100000,-0.100000)"
fill="#000000" stroke="none">
<path d="M4495 9470 c-368 -26 -733 -95 -1080 -202 -115 -36 -357 -125 -460
-170 -74 -32 -374 -181 -436 -216 -643 -363 -1200 -879 -1606 -1487 -135 -202
-184 -288 -293 -505 -248 -495 -404 -1009 -465 -1530 -136 -1169 155 -2321
828 -3275 163 -230 291 -381 521 -611 166 -165 295 -279 452 -400 128 -98 131
-100 246 -175 57 -37 108 -72 113 -77 28 -24 299 -173 440 -242 656 -319 1320
-470 2064 -470 734 0 1384 152 2071 483 422 203 871 527 1230 887 636 637
1066 1417 1260 2285 33 147 41 187 65 350 70 460 60 1054 -26 1520 -269 1455
-1210 2701 -2538 3359 -499 247 -1037 403 -1596 462 -177 18 -620 26 -790 14z
m349 -900 c9 -151 19 -301 22 -334 4 -39 3 -57 -4 -55 -8 3 -258 240 -466 443
-21 21 -21 16 1 -341 l6 -103 -41 0 c-39 0 -41 2 -46 33 -9 55 -38 570 -34
604 l3 32 85 -81 c47 -45 154 -148 238 -231 84 -82 155 -147 157 -146 3 4 -8
208 -20 371 l-7 87 38 3 c22 2 42 1 45 -2 4 -3 14 -129 23 -280z m1007 -55
c63 -295 89 -417 96 -453 l6 -33 -39 6 c-21 4 -42 10 -46 14 -5 4 -15 43 -24
87 l-16 79 -136 33 c-76 18 -146 35 -157 37 -15 4 -32 -10 -70 -60 -49 -64
-50 -64 -90 -59 -22 3 -43 9 -48 13 -4 4 8 25 26 47 18 21 64 77 102 124 341
418 338 416 347 384 4 -16 26 -114 49 -219z m-1889 205 c96 -36 173 -140 198
-268 33 -165 -47 -315 -196 -372 -73 -27 -169 -24 -237 9 -151 73 -236 279
-177 434 38 102 117 183 200 205 61 17 155 13 212 -8z m2259 -333 c0 -116 4
-233 7 -259 l7 -47 35 30 c19 17 87 79 150 139 217 203 196 189 248 162 l33
-18 -223 -204 c-122 -113 -245 -226 -272 -252 -28 -25 -53 -45 -55 -43 -5 6
-20 728 -15 737 3 4 23 -1 45 -12 l39 -20 1 -213z m-3308 -143 c57 -19 136
-95 168 -161 20 -40 24 -64 24 -138 0 -86 -2 -94 -35 -149 -19 -31 -53 -74
-75 -94 -51 -47 -200 -142 -223 -142 -10 0 -31 24 -51 58 -19 31 -92 150 -162
263 -71 114 -129 209 -129 212 0 3 24 20 53 37 28 18 68 44 89 57 105 70 238
92 341 57z m4122 -38 c64 -29 122 -87 153 -154 21 -47 24 -65 20 -140 -3 -73
-9 -96 -33 -141 -40 -73 -110 -143 -176 -177 -45 -23 -66 -27 -130 -27 -95 0
-170 33 -228 100 -63 71 -76 106 -76 208 0 77 4 98 27 147 83 178 276 258 443
184z m487 -438 c-1 -57 -7 -206 -12 -333 -5 -126 -8 -231 -6 -232 1 -2 75 70
164 159 l162 163 30 -30 30 -31 -234 -239 c-129 -132 -238 -236 -242 -232 -7
6 14 621 21 645 10 28 -18 4 -165 -143 -85 -85 -158 -155 -163 -155 -10 0 -60
50 -56 55 23 27 465 475 469 475 3 0 4 -46 2 -102z m-2457 82 c1267 -107 2346
-989 2698 -2205 159 -547 166 -1093 23 -1646 -103 -399 -287 -773 -543 -1104
-66 -85 -257 -299 -293 -327 -14 -11 -50 -43 -80 -72 -346 -327 -868 -599
-1362 -710 -265 -59 -369 -70 -698 -71 -329 0 -448 12 -699 71 -626 147 -1182
476 -1595 944 -429 487 -674 1023 -762 1670 -22 159 -25 581 -6 720 56 403
138 686 299 1018 101 209 268 463 430 651 81 96 276 285 385 374 612 504 1413
753 2203 687z m-2795 -45 c17 -9 41 -32 54 -53 36 -54 41 -98 19 -164 l-19
-56 100 -11 c56 -6 134 -14 174 -18 41 -3 72 -11 72 -17 0 -6 -15 -23 -32 -38
-38 -32 -51 -33 -198 -13 -149 20 -180 19 -212 -10 -16 -13 -28 -28 -28 -33 0
-10 19 -32 106 -124 30 -31 54 -60 54 -64 0 -12 -42 -54 -55 -54 -7 0 -27 17
-46 38 -149 164 -376 408 -384 415 -10 8 97 117 167 171 75 57 157 68 228 31z
m-366 -500 c79 -40 151 -111 184 -182 22 -47 27 -72 27 -133 -1 -64 -5 -84
-32 -136 -137 -264 -520 -211 -618 85 -22 69 -16 171 15 232 30 58 107 130
161 151 71 28 189 20 263 -17z m6464 -527 c56 -110 63 -129 62 -181 0 -66 -16
-103 -60 -141 -65 -54 -145 -54 -225 0 -20 14 -38 24 -39 22 -1 -2 -11 -30
-23 -63 -66 -180 -99 -265 -103 -265 -3 0 -16 20 -29 45 l-24 46 48 127 c80
210 76 191 51 234 -11 21 -23 38 -26 38 -3 0 -52 -27 -110 -59 l-105 -59 -23
26 c-12 15 -21 34 -20 42 2 8 46 38 98 65 121 65 376 203 415 226 17 10 35 18
40 18 6 1 38 -54 73 -121z m-7079 -7 l25 -19 -63 -122 c-34 -67 -61 -123 -59
-125 8 -7 168 -85 176 -85 4 0 32 50 62 110 30 61 58 110 62 110 4 0 19 -5 33
-12 33 -15 31 -25 -35 -148 -54 -102 -56 -107 -37 -112 6 -2 63 -29 124 -61
l113 -57 -13 -33 c-8 -17 -21 -33 -29 -35 -9 -2 -67 24 -130 56 -62 33 -185
97 -273 142 -88 45 -161 83 -163 85 -6 6 164 325 173 325 6 0 21 -9 34 -19z
m7357 -570 l11 -39 -56 -21 c-31 -11 -108 -36 -171 -55 -203 -61 -235 -78
-264 -141 -34 -72 -7 -182 56 -227 61 -43 115 -38 338 32 120 37 205 59 210
54 5 -5 11 -25 12 -44 l3 -34 -90 -27 c-49 -16 -141 -44 -204 -63 -173 -55
-257 -48 -333 27 -50 49 -74 94 -89 170 -20 99 27 202 118 258 31 19 408 146
438 148 6 1 16 -17 21 -38z m-7356 -42 c55 -13 125 -63 158 -111 73 -106 79
-222 22 -403 -18 -55 -34 -102 -35 -104 -3 -2 -194 55 -550 166 -27 8 -53 18
-57 22 -10 9 55 210 88 271 80 147 207 201 374 159z m7412 -737 c66 -29 129
-90 164 -159 26 -52 29 -67 28 -153 0 -57 -6 -111 -15 -135 -12 -35 -19 -40
-47 -43 -48 -5 -65 3 -52 25 40 73 50 146 28 231 -15 60 -94 142 -154 160 -62
18 -172 15 -219 -7 -53 -24 -101 -74 -121 -128 -22 -58 -15 -156 17 -220 l24
-48 55 3 c92 4 102 9 96 40 -2 15 -8 57 -11 94 l-6 66 31 7 c18 4 36 3 40 -1
10 -11 34 -263 25 -272 -5 -6 -202 -30 -252 -32 -16 0 -29 12 -48 43 -129 221
-60 475 147 543 62 20 209 12 270 -14z m-7309 -83 c-5 -5 -39 -20 -77 -33 -38
-14 -73 -30 -76 -36 -6 -10 -30 -255 -30 -301 0 -7 32 -32 70 -54 69 -39 70
-41 70 -82 0 -23 -4 -45 -10 -48 -5 -3 -29 7 -52 22 -24 16 -166 103 -316 192
-150 90 -271 166 -269 167 2 2 158 62 348 133 l344 129 3 -40 c2 -23 0 -44 -5
-49z m7202 -654 c318 -24 305 -22 305 -54 0 -84 -23 -250 -40 -286 -23 -49
-90 -95 -137 -95 -44 0 -95 26 -119 61 -23 35 -27 36 -48 4 -26 -40 -72 -58
-136 -53 -67 5 -109 31 -148 92 -23 36 -27 51 -27 126 0 100 6 212 12 223 3 4
35 6 71 3 37 -3 157 -13 267 -21z m-7245 -34 c0 -10 2 -31 5 -47 6 -31 1 -37
-170 -214 -62 -65 -63 -66 -58 -113 l6 -47 56 6 c31 3 87 9 125 14 39 5 73 7
78 4 4 -3 8 -23 8 -44 0 -45 32 -37 -280 -70 -239 -25 -275 -29 -321 -36 l-36
-5 -12 89 c-21 168 -12 246 36 303 68 80 191 79 266 -3 15 -17 27 -33 27 -37
0 -3 4 -12 9 -19 6 -11 21 -1 57 39 124 134 187 199 195 199 5 0 9 -8 9 -19z
m7490 -609 c-10 -39 -13 -41 -118 -86 -59 -24 -133 -57 -165 -71 l-59 -26 38
-47 c21 -26 41 -49 44 -52 4 -4 103 -128 133 -167 11 -15 0 -103 -13 -103 -4
0 -41 42 -82 93 -40 50 -77 97 -83 103 -5 6 -26 30 -45 54 -79 99 -76 97 -208
129 -68 16 -126 31 -129 35 -3 3 -2 21 1 41 9 44 14 44 166 5 104 -26 117 -28
145 -15 132 62 381 162 383 155 2 -5 -2 -26 -8 -48z m-7481 -48 c60 -24 107
-84 131 -168 12 -39 28 -91 36 -115 19 -58 18 -79 -3 -85 -10 -2 -101 -28
-203 -56 -102 -29 -229 -65 -284 -81 -54 -16 -102 -29 -106 -29 -4 0 -10 10
-13 23 -3 12 -19 76 -37 141 -33 124 -34 160 -4 217 34 68 146 94 207 49 24
-18 31 -20 38 -9 5 8 9 19 9 26 0 20 52 75 85 89 41 18 96 17 144 -2z m2095
-2516 c145 -57 139 -53 121 -88 l-16 -30 -37 16 c-104 44 -163 66 -167 62 -9
-8 -53 -123 -50 -127 2 -2 41 -18 87 -36 73 -30 83 -36 80 -57 -1 -12 -6 -26
-10 -30 -5 -5 -48 7 -96 26 l-88 35 -24 -54 c-44 -102 -48 -95 67 -139 97 -37
100 -39 94 -65 -3 -14 -9 -29 -13 -33 -9 -8 -265 95 -269 109 -4 10 14 59 107
288 29 72 56 140 61 153 10 27 8 28 153 -30z m2827 10 c47 -26 79 -86 79 -149
0 -39 -48 -189 -79 -247 -6 -11 -8 -22 -5 -25 3 -2 48 13 101 34 53 22 100 36
104 32 4 -4 9 -19 11 -33 3 -23 -6 -28 -162 -91 -91 -36 -166 -63 -168 -59 -1
4 25 76 59 161 80 201 87 262 37 309 -15 13 -35 20 -64 20 -52 0 -91 -36 -100
-92 -6 -35 -9 -39 -33 -36 -24 3 -26 7 -25 45 2 115 141 189 245 131z m-2401
-147 c42 -26 45 -30 43 -66 -2 -21 -5 -40 -8 -43 -3 -3 -23 11 -44 32 -69 67
-171 58 -171 -16 0 -26 13 -44 79 -107 62 -60 82 -85 91 -119 12 -45 3 -89
-23 -123 -55 -71 -186 -68 -284 7 -27 21 -32 30 -27 52 12 55 13 55 60 13 85
-75 167 -80 203 -14 19 37 2 70 -65 129 -78 69 -104 109 -104 161 0 116 132
166 250 94z m2000 16 c60 -30 87 -119 55 -181 -9 -16 -14 -30 -13 -31 2 -1 18
-10 36 -19 47 -24 72 -70 72 -135 0 -50 -3 -57 -39 -91 -24 -23 -56 -41 -84
-49 -62 -15 -74 -14 -122 9 -77 37 -109 139 -64 202 l21 29 -36 33 c-84 78
-71 189 29 232 38 17 113 17 145 1z m-1645 -92 c228 -35 215 -31 215 -60 0
-13 -5 -27 -11 -31 -6 -3 -46 -1 -90 6 -44 7 -82 10 -85 7 -5 -4 -31 -160 -58
-342 -11 -77 -12 -80 -40 -83 -16 -2 -32 0 -37 5 -7 7 3 86 50 373 5 30 7 58
5 61 -2 3 -42 12 -89 19 -82 13 -85 14 -85 40 0 33 7 41 34 35 12 -2 98 -16
191 -30z m1225 15 c41 -11 94 -61 109 -103 18 -48 12 -127 -14 -191 -37 -90
-117 -217 -143 -227 -24 -9 -72 -12 -72 -5 0 3 27 45 60 94 33 48 60 93 60 98
0 5 -20 8 -44 6 -65 -6 -111 13 -147 60 -57 71 -42 185 32 240 44 33 104 43
159 28z m-347 -157 c4 -60 11 -170 17 -246 6 -76 8 -143 4 -148 -3 -5 -18 -9
-35 -9 -25 0 -29 4 -29 28 0 15 -7 110 -15 212 -8 102 -15 191 -15 198 0 7
-14 12 -35 12 -30 0 -35 3 -35 23 0 34 6 37 75 37 l62 0 6 -107z m-569 -355
c15 -25 -3 -52 -37 -56 -34 -4 -58 38 -37 63 17 20 59 16 74 -7z"/>
<path d="M5667 8472 c-43 -53 -79 -101 -80 -107 -2 -10 201 -65 215 -58 3 1 0
27 -7 56 -7 28 -19 84 -26 122 -7 39 -15 73 -18 77 -4 4 -41 -36 -84 -90z"/>
<path d="M3763 8647 c-39 -14 -97 -68 -121 -111 -12 -22 -17 -55 -17 -116 0
-74 4 -92 28 -140 72 -141 238 -178 350 -79 162 142 51 461 -159 458 -27 0
-63 -6 -81 -12z"/>
<path d="M2718 8165 c-44 -12 -107 -44 -153 -78 -21 -16 -36 12 176 -332 25
-41 48 -77 51 -81 4 -3 31 8 60 24 123 71 178 145 178 240 0 104 -83 210 -182
231 -59 13 -70 13 -130 -4z"/>
<path d="M6802 8124 c-64 -32 -115 -90 -142 -161 -34 -92 -22 -169 37 -234 49
-54 101 -79 160 -78 97 1 189 63 241 164 21 40 26 64 27 120 0 65 -3 75 -35
120 -68 95 -181 122 -288 69z"/>
<path d="M4500 7649 c-408 -57 -682 -139 -994 -296 -506 -253 -944 -672 -1222
-1168 -252 -449 -383 -979 -366 -1477 l2 -48 1053 -2 1052 -3 -1055 -5 -1055
-5 1068 -3 c710 -1 1066 1 1062 8 -3 6 -1 10 4 10 6 0 11 -4 11 -10 0 -7 245
-10 715 -10 565 0 715 3 715 13 0 9 2 9 8 -1 7 -10 234 -12 1103 -10 l1094 3
-1 190 c-2 411 -92 797 -278 1187 -63 130 -100 198 -175 313 -332 514 -820
912 -1386 1132 -204 80 -382 126 -640 169 -117 19 -610 28 -715 13z m247 -177
l30 -22 29 25 c21 18 31 21 41 13 16 -13 17 -29 1 -25 -6 1 -17 -9 -25 -23 -7
-14 -17 -24 -22 -23 -5 1 -9 -16 -9 -37 -1 -22 3 -40 7 -40 10 0 63 40 73 55
4 5 8 6 8 2 0 -5 13 1 29 12 32 23 71 28 71 9 0 -14 -20 -48 -20 -35 0 7 -48
-20 -60 -33 -3 -3 -22 -16 -42 -29 -44 -26 -47 -37 -15 -47 12 -3 40 -19 61
-35 22 -16 45 -29 52 -29 13 0 26 -35 16 -44 -11 -11 -34 -6 -62 14 -15 11
-30 17 -34 13 -3 -3 -6 -1 -6 5 0 14 -69 56 -78 48 -3 -4 0 -11 7 -15 9 -6 10
-10 2 -15 -7 -5 -11 -38 -10 -89 2 -135 0 -147 -15 -147 -25 0 -28 17 -27 146
l2 125 -23 -12 c-13 -6 -44 -27 -71 -45 -49 -36 -87 -44 -87 -20 0 13 49 56
64 56 4 0 17 9 29 20 12 12 32 23 44 26 22 6 33 34 13 34 -11 0 -106 57 -132
80 -10 8 -18 20 -18 27 0 16 36 17 45 2 4 -6 13 -8 19 -6 7 3 18 -4 24 -14 7
-10 17 -19 23 -19 5 0 19 -9 31 -20 31 -29 38 -25 38 20 0 39 -23 80 -45 80
-6 0 -11 8 -11 19 0 23 13 22 53 -7z m55 -539 c6 -16 13 -38 14 -50 2 -12 7
-38 13 -59 6 -20 8 -41 5 -46 -3 -4 -35 -8 -72 -8 -41 0 -62 4 -53 9 9 6 10
11 2 15 -6 4 -11 13 -11 19 0 7 4 6 11 -3 7 -11 9 -3 7 32 -2 25 0 44 4 42 4
-3 12 14 18 36 13 49 44 55 62 13z m112 -199 c9 -24 7 -52 -5 -59 -10 -7 -270
-7 -276 -1 -2 1 -6 16 -9 33 -8 39 -4 40 157 42 107 1 128 -1 133 -15z m-61
-129 c-6 -39 15 -128 28 -119 5 3 6 -2 3 -10 -3 -8 4 -25 15 -37 12 -13 21
-27 21 -31 0 -5 5 -6 11 -2 7 4 10 1 7 -6 -3 -11 -41 -14 -166 -14 -89 -1
-162 2 -162 5 0 4 7 12 16 20 22 18 45 65 36 74 -4 5 -2 5 5 1 15 -8 37 91 27
128 l-6 26 85 0 86 0 -6 -35z m156 -265 l34 -30 -284 1 c-156 1 -273 4 -259 6
13 3 37 15 52 28 27 23 34 24 225 24 l198 1 34 -30z m80 -68 c51 -37 39 -42
-95 -42 -122 0 -129 1 -161 26 -41 31 -84 29 -132 -7 -27 -20 -38 -21 -143
-17 -130 5 -153 12 -111 36 34 20 195 28 448 24 144 -2 174 -5 194 -20z m-262
-34 l23 -21 0 -288 0 -288 -26 -20 c-32 -25 -57 -26 -94 -4 -39 22 -42 58 -38
359 2 199 6 243 18 256 34 34 85 36 117 6z m-152 -48 l0 -25 -162 -3 c-90 -1
-163 1 -163 5 0 4 10 17 22 30 21 23 26 23 162 21 l141 -3 0 -25z m503 3 c12
-13 22 -25 22 -28 0 -3 -73 -4 -162 -3 -159 3 -163 4 -166 25 -4 27 10 29 168
28 106 0 117 -2 138 -22z m72 -73 c11 -11 20 -23 20 -27 0 -5 -90 -8 -200 -8
l-200 0 0 30 0 30 180 -3 c164 -3 183 -5 200 -22z m-575 -8 l0 -23 -198 -2
c-108 -1 -197 1 -197 6 0 4 5 16 12 27 11 18 24 19 198 17 l185 -2 0 -23z
m-1250 -33 c-4 -6 -27 -29 -51 -51 -81 -75 -154 -212 -154 -291 l0 -29 58 7
c95 12 221 73 276 134 11 11 23 21 28 21 4 0 8 -146 8 -325 0 -179 -3 -325 -7
-325 -4 0 -21 13 -38 29 -70 68 -217 131 -304 131 -27 0 -28 -37 -2 -112 26
-74 63 -131 133 -201 32 -32 58 -60 58 -62 0 -3 -174 -5 -387 -5 l-387 0 61
63 c92 93 134 169 158 285 6 31 6 32 -27 32 -83 0 -213 -55 -289 -121 -24 -21
-47 -39 -51 -39 -5 0 -8 146 -8 325 0 179 3 325 8 325 4 0 25 -16 47 -36 59
-52 119 -85 194 -106 71 -20 117 -23 125 -9 9 14 -23 121 -52 175 -15 28 -58
83 -96 123 l-69 73 387 0 c274 0 385 -3 381 -11z m1250 -39 l0 -25 -219 -3
c-234 -3 -263 2 -216 38 23 18 40 20 230 17 l205 -2 0 -25z m623 18 c5 -7 12
-22 16 -33 6 -20 2 -20 -219 -17 l-225 3 0 29 0 30 209 0 c155 0 211 -3 219
-12z m1232 -85 c53 -31 82 -104 66 -167 -5 -21 -12 -26 -40 -26 -69 0 -136 74
-136 152 0 65 41 81 110 41z m-1852 -8 l-3 -26 -244 0 c-134 0 -246 2 -248 5
-3 2 0 14 7 25 10 20 18 21 251 21 l240 0 -3 -25z m676 9 c3 -9 6 -20 6 -24 0
-5 -110 -11 -245 -12 l-245 -3 0 28 0 27 239 0 c209 0 240 -2 245 -16z m-679
-122 l0 -63 -279 0 c-153 0 -281 2 -283 5 -3 2 0 14 7 25 10 20 17 21 275 21
176 0 265 3 265 10 0 7 -86 10 -260 8 l-260 -3 0 22 c0 36 36 41 320 39 l215
-1 0 -63z m720 45 c8 -12 15 -25 15 -29 0 -5 -121 -8 -270 -8 l-270 0 0 29 0
28 255 1 c249 0 256 -1 270 -21z m36 -84 l8 -23 -279 0 c-180 0 -280 -4 -280
-10 0 -6 102 -10 283 -11 155 -1 284 -1 287 -1 3 0 5 -12 4 -26 l-1 -27 -286
-3 c-180 -1 -287 -6 -287 -12 0 -6 106 -10 289 -10 302 0 301 0 301 -41 0 -5
-125 -9 -302 -9 l-303 0 3 100 3 100 276 -2 c276 -3 276 -3 284 -25z m-753
-70 l-3 -28 -292 -3 c-161 -1 -293 1 -293 5 0 5 3 18 6 31 l6 22 290 0 289 0
-3 -27z m0 -80 l3 -28 -298 2 c-267 1 -298 3 -301 18 -8 40 -5 40 299 38 l294
-3 3 -27z m48 -65 c43 -23 80 -20 108 7 13 13 59 15 328 13 l312 -3 -1 -22 c0
-13 -1 -26 -2 -30 0 -5 -318 -8 -705 -8 -463 0 -703 3 -702 10 1 6 6 20 10 33
l7 22 302 0 c290 0 304 -1 343 -22z m818 -64 c19 -7 21 -39 5 -57 -9 -9 -189
-11 -788 -7 -427 3 -777 6 -778 8 -2 1 -3 11 -3 22 0 11 1 21 3 22 1 2 349 5
772 8 424 3 771 6 772 8 1 1 8 -1 17 -4z m-64 -468 c0 -211 -2 -390 -5 -398
-4 -10 -21 -12 -67 -8 -58 5 -62 7 -63 30 -3 64 -6 80 -15 80 -5 0 -10 -25
-10 -55 l0 -55 -625 -2 -625 -3 -2 390 c-2 215 -2 393 0 398 2 4 320 7 708 7
l704 0 0 -384z m1662 -413 c-298 -2 -786 -2 -1085 0 -298 1 -54 2 543 2 597 0
841 -1 542 -2z"/>
<path d="M2919 5994 c41 -29 51 -72 51 -224 l0 -140 -164 0 c-159 0 -164 1
-190 25 l-26 24 0 -124 c0 -69 2 -125 4 -125 3 0 12 8 22 17 21 22 91 31 237
32 l117 1 0 -155 0 -154 -31 -36 -31 -35 148 0 149 0 -27 23 c-42 36 -47 56
-49 208 l-1 144 165 0 c148 0 167 -2 186 -19 l21 -19 0 123 0 123 -26 -24
c-25 -23 -30 -24 -187 -24 l-162 0 -3 135 c-1 74 0 146 3 158 3 13 20 37 38
53 l31 29 -149 0 c-141 0 -148 -1 -126 -16z"/>
<path d="M5190 5375 c0 -12 -18 -15 -97 -15 -103 0 -143 -11 -110 -31 9 -5 17
-21 17 -35 0 -27 24 -30 26 -3 0 8 2 20 2 27 2 10 41 13 175 12 243 -1 227 -2
221 15 -5 12 -27 15 -110 15 -86 0 -104 3 -104 15 0 8 -4 15 -10 15 -5 0 -10
-7 -10 -15z"/>
<path d="M4370 5365 c0 -12 -22 -15 -112 -17 -62 -2 -111 -7 -108 -11 3 -5
148 -8 324 -8 294 1 320 0 331 -16 8 -10 15 -16 18 -13 11 13 15 57 6 70 -8
13 -11 13 -20 -2 -9 -16 -30 -18 -208 -18 -168 0 -200 2 -205 15 -7 19 -26 20
-26 0z"/>
<path d="M4300 5223 c-36 -2 -69 -9 -75 -15 -7 -7 13 -9 69 -4 43 3 112 6 153
6 42 0 73 4 73 10 0 10 -75 11 -220 3z"/>
<path d="M4788 5223 c-16 -2 -28 -9 -28 -15 0 -6 10 -8 23 -4 12 3 34 6 50 6
15 0 27 5 27 10 0 10 -20 11 -72 3z"/>
<path d="M5200 5212 c-68 -5 -74 -22 -8 -22 31 0 59 4 63 9 8 14 -4 17 -55 13z"/>
<path d="M5350 5200 c0 -5 14 -10 31 -10 17 0 28 4 24 10 -3 6 -17 10 -31 10
-13 0 -24 -4 -24 -10z"/>
<path d="M4424 5178 c3 -13 5 -27 5 -31 1 -5 6 -5 11 -2 16 10 12 55 -5 55
-10 0 -14 -7 -11 -22z"/>
<path d="M4828 5123 l-3 -38 -180 -5 c-191 -5 -240 -21 -93 -30 l83 -5 0 -29
c0 -16 6 -31 14 -34 10 -3 12 4 9 32 l-4 36 278 0 c264 0 278 1 288 19 13 25
13 51 0 51 -5 0 -10 -9 -10 -20 0 -18 -9 -19 -180 -22 l-180 -3 0 37 c0 49
-18 58 -22 11z"/>
<path d="M5300 5065 c0 -11 12 -15 50 -15 38 0 50 4 50 15 0 11 -12 15 -50 15
-38 0 -50 -4 -50 -15z"/>
<path d="M5030 5031 c0 -6 5 -13 10 -16 6 -3 10 1 10 9 0 9 -4 16 -10 16 -5 0
-10 -4 -10 -9z"/>
<path d="M4198 4933 c-2 -30 -7 -37 -20 -35 -10 2 -18 -2 -18 -8 0 -12 10 -12
148 -10 87 1 102 -1 102 -14 0 -9 5 -16 11 -16 6 0 9 10 7 23 -3 21 -7 22
-101 22 -57 0 -97 4 -98 10 -1 6 -2 15 -4 20 -1 6 -3 18 -3 28 -3 32 -21 17
-24 -20z"/>
<path d="M4615 4909 c-60 -3 -107 -6 -102 -7 14 -5 229 -3 233 1 10 10 -26 12
-131 6z"/>
<path d="M4842 4877 c-14 -39 -15 -47 -4 -47 4 0 13 14 19 30 10 27 16 30 52
30 23 0 41 5 41 10 0 6 -22 10 -48 10 -45 0 -49 -2 -60 -33z"/>
<path d="M5178 4903 c-45 -7 -32 -23 17 -23 l45 0 0 -40 c0 -22 5 -40 10 -40
6 0 10 18 10 40 l0 40 69 0 c74 0 102 13 50 24 -33 6 -155 6 -201 -1z"/>
<path d="M4825 4795 c-122 -17 -173 -32 -185 -55 -13 -24 -13 -50 0 -50 6 0
10 6 10 13 0 21 33 47 66 51 257 33 276 32 295 -24 12 -33 29 -40 29 -12 0 25
-27 60 -60 77 -33 17 -31 17 -155 0z"/>
<path d="M4280 4760 c0 -5 47 -11 108 -12 l107 -3 3 -27 c2 -16 9 -28 17 -28
8 0 13 6 11 13 -3 6 -7 24 -10 40 l-6 27 -115 0 c-67 0 -115 -4 -115 -10z"/>
<path d="M1920 4585 c0 -19 -121 -17 1116 -15 1159 1 1067 7 1079 -68 3 -20 8
-49 10 -64 3 -18 0 -28 -8 -29 -6 0 -72 0 -144 1 -87 1 -133 -3 -133 -10 0 -6
55 -10 159 -10 l159 0 4 -51 c1 -28 1 -53 -1 -55 -2 -2 -112 -4 -243 -4 -131
0 -238 -3 -238 -7 0 -5 80 -8 177 -8 l178 0 2 -30 c2 -50 4 -51 17 -10 l12 40
69 0 70 0 13 -38 c6 -22 10 -43 6 -48 -3 -5 -275 -9 -655 -9 -431 0 -648 -3
-644 -10 4 -7 233 -10 656 -10 570 0 649 -2 649 -15 0 -13 -55 -15 -431 -15
-236 0 -428 -4 -425 -8 2 -4 199 -7 436 -7 311 1 433 -2 440 -10 8 -10 28
-163 28 -220 0 -11 5 -81 11 -155 17 -213 19 -489 4 -483 -7 3 -15 13 -18 24
-4 10 -10 19 -15 19 -5 0 -12 10 -16 23 -15 51 -161 233 -275 344 -69 67 -179
158 -201 166 -24 8 -4 15 62 20 36 4 100 9 144 13 l78 7 -6 36 c-3 20 -6 46
-6 59 l0 22 -192 0 c-136 0 -189 -3 -181 -11 7 -7 69 -9 181 -7 l171 3 7 -38
c3 -21 4 -40 1 -43 -8 -9 -47 -13 -181 -20 -131 -7 -135 -6 -178 18 -69 40
-174 78 -220 80 -51 2 -144 -38 -252 -109 -61 -39 -159 -114 -176 -133 -3 -4
-33 -32 -67 -63 l-63 -57 -70 0 -71 0 3 254 3 255 -37 -1 c-37 0 -49 -10 -28
-23 12 -8 14 -405 1 -405 -4 0 -38 23 -74 50 -36 28 -69 50 -72 50 -6 0 -85
-64 -139 -112 -11 -10 -23 -18 -28 -18 -4 0 -8 -34 -8 -75 0 -45 -4 -75 -10
-75 -12 0 -109 195 -162 325 -11 28 -25 61 -31 75 -6 14 -11 27 -12 30 0 3
-16 49 -34 104 -17 54 -30 100 -27 103 9 10 313 19 322 10 3 -3 3 -19 -1 -35
-7 -32 -16 -35 -172 -58 -24 -3 -43 -10 -43 -16 0 -5 8 -7 18 -4 9 3 53 10 97
16 116 16 113 15 117 63 l3 42 78 3 c46 2 77 7 77 14 0 6 -15 8 -42 4 -24 -3
-140 -8 -258 -12 -207 -7 -216 -6 -217 12 0 10 -12 71 -26 134 -14 63 -27 134
-30 158 l-5 42 68 0 c62 0 70 -2 89 -26 12 -16 21 -41 21 -62 0 -19 3 -32 7
-28 4 4 6 25 4 46 l-3 40 89 0 c48 0 94 4 101 9 15 9 34 81 22 81 -10 0 -20
-26 -20 -50 0 -16 -11 -19 -97 -22 -80 -3 -100 -1 -111 11 -10 12 -33 16 -100
16 l-87 0 3 -50 c2 -27 10 -77 18 -110 14 -63 9 -77 -27 -70 -10 2 -21 0 -24
-6 -6 -8 3 -11 49 -13 16 -1 23 -18 41 -98 13 -53 34 -127 49 -165 31 -82 31
-83 6 -83 -29 0 -24 -18 6 -22 21 -3 30 -14 55 -76 16 -40 29 -75 29 -78 0 -2
-21 -4 -46 -4 -26 0 -43 -4 -39 -10 3 -5 26 -9 51 -8 25 0 46 -1 48 -3 2 -2
24 -44 49 -94 62 -126 91 -179 100 -186 4 -3 7 -51 6 -106 -1 -65 3 -108 11
-124 27 -49 199 -283 205 -277 2 2 24 42 49 91 25 48 58 106 73 130 52 82 78
122 83 127 4 3 17 23 30 45 24 39 153 198 214 263 83 88 258 218 352 261 45
20 55 21 94 11 120 -32 241 -109 358 -228 81 -82 138 -156 259 -337 210 -316
227 -337 318 -405 109 -82 202 -115 352 -127 106 -8 224 16 328 67 73 35 97
51 173 117 16 14 31 42 39 75 14 56 89 216 120 257 148 192 284 304 495 407
153 74 149 74 261 20 83 -39 172 -99 255 -170 38 -33 156 -171 188 -221 10
-17 21 -32 24 -35 35 -34 180 -362 180 -409 0 -15 69 -51 96 -51 15 0 37 27
27 32 -4 3 -3 3 4 2 7 -2 39 32 73 74 33 42 68 86 78 97 38 43 63 85 56 96 -4
7 -3 9 4 5 9 -5 72 74 72 91 0 3 11 21 25 39 14 18 25 36 25 39 0 4 9 20 21
36 11 16 17 29 12 29 -4 0 -3 4 2 8 16 11 47 72 38 73 -4 1 -15 2 -23 3 -8 0
-15 8 -16 16 -2 31 -6 34 -13 10 -6 -22 -11 -24 -66 -23 l-60 1 -3 136 -3 136
71 0 c40 0 70 4 70 10 0 6 -30 10 -70 10 l-71 0 3 88 3 87 35 -2 c19 -1 38 -2
41 -2 4 -1 10 -11 14 -23 l8 -23 4 23 c4 22 7 22 144 22 86 0 139 4 139 10 0
6 -70 10 -190 10 l-191 0 -90 66 c-50 36 -94 62 -98 59 -3 -4 -6 -38 -5 -76 1
-79 3 -78 -88 -37 -33 15 -48 27 -48 40 0 10 -7 21 -15 24 -16 6 -285 -13
-293 -21 -14 -13 13 -15 94 -6 190 22 192 22 197 -5 2 -13 2 -26 -1 -29 -3 -3
-53 -5 -111 -6 -58 0 -126 -4 -151 -8 -32 -6 -1 -9 111 -10 154 -1 157 -1 163
-23 3 -13 6 -33 6 -45 0 -22 -1 -22 -196 -25 l-196 -3 4 50 4 50 -200 -2
c-431 -3 -571 -6 -506 -12 l65 -6 -3 -55 c-3 -38 -1 -52 6 -45 6 6 12 30 14
55 l3 45 198 3 198 2 -3 -27 c-2 -22 -9 -29 -33 -33 l-30 -6 29 -7 c34 -10 46
0 49 39 l2 29 84 3 c47 2 90 1 96 -2 8 -3 10 -17 6 -43 -6 -34 -9 -38 -33 -35
-14 2 -29 -2 -33 -7 -7 -13 -7 -13 169 -15 l129 -1 1 -40 1 -40 -117 -9 c-65
-5 -118 -13 -118 -18 0 -4 30 -6 68 -4 37 3 131 8 210 12 l142 7 0 -240 c0
-231 -6 -333 -19 -333 -6 0 -81 144 -81 155 0 3 12 5 28 5 18 0 23 3 14 9 -7
4 -23 6 -36 4 -18 -4 -29 6 -58 49 -56 82 -66 95 -168 199 -114 117 -195 177
-315 235 -131 64 -140 64 -270 6 -60 -27 -137 -65 -170 -85 l-60 -36 -30 30
c-28 26 -38 29 -96 29 -36 0 -68 2 -71 5 -3 3 -2 20 1 38 7 31 8 32 64 35 98
5 62 17 -56 18 -183 2 -177 2 -177 24 0 11 -5 20 -11 20 -7 0 -9 -11 -6 -26 4
-25 3 -26 -39 -22 -24 2 -44 0 -44 -4 0 -5 56 -8 124 -8 75 0 127 -4 131 -10
4 -6 4 -24 0 -40 l-7 -30 -91 4 c-51 2 -126 5 -167 5 -42 1 -69 5 -62 9 7 5
16 41 20 81 l7 73 187 -2 c119 0 189 3 193 10 4 7 -54 10 -179 10 -111 0 -186
4 -186 10 0 5 4 19 9 32 5 13 19 55 31 93 11 39 25 76 29 83 6 9 64 12 241 10
l234 -3 7 -25 7 -25 1 26 1 27 218 4 c229 5 281 -1 289 -33 3 -10 10 -19 15
-19 6 0 7 7 4 16 -3 9 -6 19 -6 24 0 14 -34 23 -115 29 l-79 6 2 45 c3 40 0
48 -26 67 -27 20 -34 21 -106 11 -42 -6 -76 -15 -76 -21 0 -5 15 -7 33 -4 140
25 157 18 157 -59 l0 -44 -255 -1 c-140 -1 -261 -2 -267 -3 -14 -1 -35 37 -40
73 l-3 24 112 -2 c119 -3 140 3 167 44 13 20 14 25 3 25 -8 0 -19 -11 -25 -25
l-12 -25 -195 0 c-123 0 -195 -4 -195 -10 0 -6 28 -10 64 -10 l64 0 10 -40 c5
-22 7 -42 3 -44 -11 -7 -210 -10 -216 -4 -3 3 5 30 18 59 14 30 28 64 32 77 4
13 22 50 41 83 19 34 34 63 34 66 0 2 6 11 13 18 6 8 23 30 37 49 l25 35 117
1 c68 0 119 -4 123 -10 3 -6 3 -19 0 -30 -6 -19 -15 -20 -126 -20 -73 0 -119
-4 -119 -10 0 -6 52 -10 135 -10 135 0 135 0 130 23 -12 49 -1 52 220 55 232
4 258 1 253 -29 -3 -20 -8 -21 -150 -20 -97 1 -148 -2 -148 -9 0 -6 55 -10
160 -10 l160 0 0 29 c0 27 4 30 43 36 23 3 340 5 705 3 625 -3 662 -2 662 15
0 16 -144 17 -2885 17 -2558 0 -2885 -2 -2885 -15z m2478 -20 l52 -6 0 -75 0
-75 42 -19 c37 -16 44 -25 60 -72 9 -29 18 -77 18 -105 l0 -53 -47 0 c-78 0
-183 -12 -183 -21 0 -5 6 -7 13 -4 6 2 74 6 150 10 l137 6 0 -80 0 -79 52 -45
53 -45 -4 -111 c-2 -76 1 -111 8 -111 7 0 11 35 11 101 l0 102 45 48 c44 47
45 50 45 113 0 58 3 70 28 96 30 35 38 36 202 41 l115 3 -135 6 c-133 5 -134
5 -141 30 l-7 25 -1 -26 c-1 -15 -15 -39 -36 -59 -32 -31 -35 -38 -35 -95 0
-54 -4 -67 -32 -103 -18 -23 -39 -42 -48 -42 -8 0 -36 18 -62 41 l-48 41 0 84
0 84 -30 0 c-28 0 -30 2 -30 40 l0 40 184 0 184 0 5 33 c3 17 8 50 12 73 9 59
41 76 109 58 28 -8 97 -14 153 -15 57 0 105 -4 107 -7 2 -4 -6 -32 -18 -62
-20 -49 -26 -55 -52 -56 -16 0 -86 -1 -156 -2 -79 -1 -128 -6 -128 -12 0 -7
47 -8 139 -4 76 4 145 4 153 1 13 -4 11 -17 -9 -79 -13 -40 -28 -93 -34 -118
-5 -25 -17 -65 -25 -89 l-17 -44 -103 6 c-57 2 -104 1 -104 -3 0 -4 48 -11
106 -16 l106 -9 -39 -29 c-21 -16 -50 -49 -65 -73 -24 -38 -30 -42 -47 -33
-26 14 -114 13 -146 -2 -33 -15 -33 -30 1 -18 31 12 134 13 152 1 29 -18 8
-46 -46 -61 -28 -8 -52 -18 -52 -22 0 -12 17 -10 57 7 29 12 38 13 45 3 12
-20 10 -25 -22 -58 -16 -17 -30 -36 -30 -42 0 -7 21 9 47 35 26 26 59 53 75
59 15 7 28 16 28 20 0 5 7 8 15 8 12 0 15 -14 15 -65 0 -39 -4 -65 -11 -65
-15 0 -138 -61 -145 -72 -11 -18 6 -21 24 -5 20 18 101 56 120 57 11 0 13 -40
11 -197 -1 -109 -4 -205 -6 -214 -3 -9 -16 -22 -30 -28 -36 -16 -20 -26 17
-11 l30 12 0 169 0 169 55 0 55 0 0 -36 c0 -21 4 -33 10 -29 6 3 10 21 10 40
0 36 -7 40 -95 47 -23 2 -30 8 -29 23 1 11 2 68 2 128 l2 107 56 0 56 0 -7
-57 c-4 -38 -3 -55 3 -48 6 6 13 30 16 54 3 24 8 46 10 49 3 2 79 1 170 -3
153 -7 166 -9 186 -30 l21 -23 -85 -61 c-86 -62 -286 -263 -286 -287 0 -14
-25 -23 -67 -27 -31 -2 -29 -17 2 -17 14 0 25 -2 25 -3 0 -2 -20 -43 -45 -91
-49 -95 -53 -121 -30 -166 18 -34 15 -36 -70 -63 -55 -18 -124 -21 -290 -14
-98 5 -110 8 -113 25 -5 31 23 44 109 49 84 6 170 32 177 53 3 8 -5 7 -24 -3
-33 -17 -112 -33 -201 -41 l-63 -6 0 174 0 173 66 7 c74 8 166 39 186 63 11
14 11 16 -2 10 -103 -43 -144 -56 -192 -59 l-58 -5 0 129 c0 79 -4 128 -10
128 -6 0 -10 -27 -10 -60 0 -59 -1 -60 -24 -54 -13 3 -27 1 -30 -5 -5 -7 4
-11 23 -11 31 0 31 0 31 -55 0 -30 0 -58 0 -62 -1 -5 -25 -7 -55 -5 -32 1 -55
-2 -55 -8 0 -6 25 -10 58 -10 l57 0 -2 -188 c-1 -103 -2 -199 -3 -214 0 -26
-3 -28 -43 -28 -49 0 -66 14 -90 72 -9 21 -33 49 -55 65 -22 15 -44 41 -50 57
-24 61 13 62 96 0 34 -25 66 -44 72 -42 6 2 -19 24 -55 50 -63 46 -65 49 -65
93 0 47 7 53 42 34 39 -21 29 0 -13 27 -33 20 -58 27 -108 30 l-66 3 65 -12
65 -12 3 -51 3 -50 -95 -30 c-53 -16 -96 -33 -96 -38 0 -4 6 -6 14 -3 24 9 25
-2 5 -54 -11 -27 -19 -60 -19 -74 0 -13 -3 -26 -7 -28 -8 -5 -27 22 -233 327
-130 192 -165 238 -253 332 -123 130 -285 230 -394 241 -45 5 -60 1 -115 -27
-165 -86 -354 -261 -507 -472 -50 -68 -97 -132 -105 -143 -14 -18 -15 -13 -16
59 l0 79 62 71 c141 161 280 288 417 378 83 55 212 118 241 118 29 0 159 -49
220 -83 64 -36 136 -85 200 -135 164 -130 450 -497 450 -578 0 -15 3 -25 6
-22 3 4 5 81 5 171 -1 101 2 168 8 172 6 3 21 -1 33 -8 13 -8 47 -18 77 -21
50 -7 96 -27 113 -51 5 -5 5 13 1 40 -4 28 -7 64 -8 80 0 30 1 30 58 33 76 4
73 20 -5 24 l-63 3 -3 52 c-3 49 -7 56 -70 120 -71 72 -129 149 -119 159 3 4
21 10 39 14 l33 8 -41 1 c-40 1 -42 2 -46 36 -2 20 -2 38 1 40 2 3 62 5 133 5
79 0 128 4 128 10 0 6 -52 10 -135 10 l-135 0 0 25 c0 14 -9 44 -19 68 -24 52
-31 104 -16 117 14 12 194 17 220 7 l20 -9 -20 17 c-17 15 -36 16 -131 11
-108 -6 -111 -5 -131 18 -13 15 -23 42 -24 67 l-4 44 45 8 c25 4 67 6 94 4 44
-4 48 -3 31 9 -14 10 -37 13 -85 8 -36 -3 -71 -7 -77 -9 -20 -7 -41 35 -50
100 l-9 60 91 3 c49 2 114 0 143 -3z m632 -5 c9 -6 11 -23 7 -60 -11 -92 -33
-99 -306 -101 -244 -1 -260 3 -262 54 -2 48 2 101 8 110 6 10 536 7 553 -3z
m385 -29 c-12 -20 -30 -52 -39 -72 -19 -41 -44 -49 -146 -49 -48 0 -74 4 -165
25 -18 4 -20 12 -20 70 l0 66 196 -2 197 -3 -23 -35z m-1268 -123 c-3 -8 -6
-5 -6 6 -1 11 2 17 5 13 3 -3 4 -12 1 -19z m805 -79 c-2 -29 -5 -55 -7 -58 -3
-2 -85 -4 -182 -3 -174 2 -178 2 -187 24 -5 13 -10 28 -11 34 -2 6 -6 20 -9
30 -5 18 1 19 112 19 64 0 151 3 192 6 41 3 80 5 85 4 6 -1 9 -25 7 -56z
m1993 -463 l55 -25 0 -123 c0 -68 3 -219 7 -337 l6 -213 -24 7 c-22 7 -70 19
-94 24 -6 1 -10 37 -10 86 0 92 5 99 55 70 28 -16 40 -18 40 -7 0 4 -20 15
-45 25 l-45 19 0 94 c0 97 3 104 41 84 14 -8 19 -21 19 -51 0 -24 4 -38 10
-34 21 13 9 95 -14 95 -6 0 -21 8 -33 18 -19 14 -23 28 -24 74 -1 32 -6 55
-10 52 -15 -9 -10 13 6 26 23 19 45 -5 45 -51 0 -22 5 -39 10 -39 6 0 10 16
10 36 0 21 4 33 10 29 6 -3 10 -2 10 3 0 5 -17 17 -37 28 -21 10 -41 24 -45
29 -8 11 -11 105 -3 105 2 0 29 -11 60 -24z m-709 -91 c60 -30 122 -66 138
-80 16 -14 33 -25 37 -25 17 0 208 -201 261 -275 31 -44 86 -135 123 -201 l66
-121 -3 -79 c-2 -44 -7 -79 -11 -79 -5 0 -23 38 -41 85 -76 199 -177 359 -316
501 -105 107 -234 197 -348 243 -69 28 -70 28 -108 11 -245 -110 -327 -162
-472 -300 -117 -111 -195 -227 -257 -379 l-16 -40 -26 26 -26 27 32 67 c71
148 186 288 337 410 27 21 51 41 54 44 3 3 46 31 95 62 76 48 148 84 285 145
48 22 85 14 196 -42z m-3663 -46 c12 -11 46 -36 75 -55 l52 -35 0 -205 c0
-112 -4 -204 -8 -204 -5 0 -17 7 -28 15 -27 21 -32 19 -47 -17 -17 -39 -52
-73 -66 -63 -7 4 -11 73 -11 196 l0 189 70 0 c40 0 70 4 70 10 0 6 -30 10 -70
10 l-70 0 0 30 c0 30 1 30 55 30 30 0 55 5 55 10 0 6 -27 10 -61 10 -52 0 -60
2 -55 16 3 9 6 31 6 50 0 40 3 41 33 13z m264 -185 c2 -6 -13 -27 -32 -48 -19
-21 -35 -42 -35 -46 0 -4 -6 -10 -12 -13 -10 -3 -12 11 -11 57 1 33 2 61 2 62
4 6 86 -5 88 -12z m4498 -126 c2 -2 -15 -25 -39 -52 -38 -41 -48 -47 -77 -44
-32 3 -34 6 -37 42 -5 59 -2 61 78 59 39 -1 73 -3 75 -5z m-371 -253 l46 -7 1
-47 c0 -25 3 -76 5 -113 3 -36 0 -69 -5 -72 -5 -3 -36 4 -70 16 -51 18 -61 26
-61 45 0 27 6 28 40 8 28 -16 40 -18 40 -7 0 4 -18 15 -40 25 l-40 17 0 68 c0
70 5 86 26 78 6 -2 32 -8 58 -11z m-2057 -381 c-3 -3 -12 -4 -19 -1 -8 3 -5 6
6 6 11 1 17 -2 13 -5z"/>
<path d="M4914 4038 c-3 -4 49 -8 115 -8 73 0 122 4 126 11 5 7 -31 9 -114 8
-67 -1 -124 -6 -127 -11z"/>
<path d="M4842 3899 c-24 -17 -41 -34 -38 -37 7 -6 86 48 86 59 0 13 -2 12
-48 -22z"/>
<path d="M4645 3885 c22 -19 45 -35 50 -34 6 0 -8 15 -30 34 -22 19 -44 35
-50 34 -5 0 8 -15 30 -34z"/>
<path d="M4535 3880 l-40 -7 48 -2 c30 0 46 3 42 9 -3 6 -7 9 -8 9 -1 -1 -20
-5 -42 -9z"/>
<path d="M4838 3792 c-26 -20 -45 -38 -43 -41 6 -6 105 61 105 72 0 13 -14 6
-62 -31z"/>
<path d="M4600 3805 c0 -6 33 -19 73 -29 42 -10 32 8 -13 22 -43 13 -60 15
-60 7z"/>
<path d="M4657 3646 c15 -25 32 -46 36 -46 12 0 -36 83 -51 88 -7 2 0 -17 15
-42z"/>
<path d="M4850 3575 c-43 -10 -48 -13 -24 -14 43 -1 94 10 94 20 0 10 1 11
-70 -6z"/>
<path d="M5318 3573 c39 -2 105 -2 145 0 39 1 7 3 -73 3 -80 0 -112 -2 -72 -3z"/>
<path d="M4624 3468 c-5 -7 -2 -9 8 -5 9 3 28 -1 43 -9 37 -19 41 -18 20 6
-20 22 -60 27 -71 8z"/>
<path d="M5096 3335 c-9 -24 -86 -55 -138 -55 -27 0 -48 -4 -48 -10 0 -6 17
-8 40 -5 47 6 60 -10 61 -77 0 -39 1 -41 12 -20 8 17 8 35 0 63 -11 42 -9 49
19 49 17 0 78 50 78 64 0 12 -18 6 -24 -9z"/>
<path d="M4857 3259 c-12 -13 -26 -19 -38 -16 -10 3 -19 1 -19 -4 0 -14 43
-10 64 6 10 7 16 19 14 25 -2 6 -11 1 -21 -11z"/>
<path d="M4828 3168 c-16 -5 -28 -14 -28 -20 0 -6 7 -7 18 -2 9 4 37 9 61 12
30 3 39 7 30 13 -18 11 -47 10 -81 -3z"/>
<path d="M2631 3495 c0 -16 4 -50 8 -75 l8 -45 2 60 c0 33 -4 67 -9 75 -7 11
-10 8 -9 -15z"/>
<path d="M2643 3320 c0 -25 2 -35 4 -22 2 12 2 32 0 45 -2 12 -4 2 -4 -23z"/>
<path d="M3311 4538 c-1 -27 -3 -28 -53 -29 -29 -1 -98 -4 -152 -8 -95 -6 -99
-5 -114 17 -15 23 -55 29 -82 12 -21 -13 -5 -23 18 -11 41 22 54 3 64 -89 l3
-25 -110 -5 c-181 -8 -91 -21 139 -20 l211 2 0 -29 0 -28 -110 -5 c-183 -8
-90 -20 161 -20 l233 0 9 -32 c4 -17 13 -33 19 -35 8 -3 7 9 -1 39 l-13 43
-142 3 -141 3 0 39 0 39 -117 3 -117 3 -7 35 c-4 19 -6 36 -5 37 1 1 71 5 155
9 161 8 167 10 158 56 -4 21 -4 20 -6 -4z"/>
<path d="M6792 4525 c-10 -12 -40 -15 -130 -15 -138 0 -315 -11 -307 -19 7 -6
145 -4 321 5 103 5 122 9 132 25 14 22 3 25 -16 4z"/>
<path d="M7192 4515 c0 -16 2 -22 5 -12 2 9 2 23 0 30 -3 6 -5 -1 -5 -18z"/>
<path d="M2593 4522 c-62 -1 -113 -6 -113 -10 0 -4 66 -8 148 -7 81 0 157 -4
170 -8 14 -5 22 -4 22 2 0 20 -72 27 -227 23z"/>
<path d="M3640 4520 c-30 -4 -84 -11 -120 -15 -36 -4 -67 -9 -69 -11 -13 -12
17 -12 134 1 164 19 154 19 165 -9 l9 -23 125 21 c137 24 136 24 136 -35 0
-16 4 -29 9 -29 8 0 5 89 -4 98 -2 2 -60 -4 -129 -14 l-126 -18 -16 22 c-16
23 -24 24 -114 12z"/>
<path d="M7263 4518 c-2 -5 91 -8 206 -8 148 0 211 3 211 11 0 13 -409 9 -417
-3z"/>
<path d="M5800 4500 c0 -5 9 -10 20 -10 11 0 20 5 20 10 0 6 -9 10 -20 10 -11
0 -20 -4 -20 -10z"/>
<path d="M7659 4469 c-9 -13 -18 -31 -21 -40 -6 -15 -27 -16 -195 -12 -103 3
-185 2 -180 -3 4 -4 101 -9 215 -11 114 -1 201 0 195 3 -16 7 -17 36 -2 51 6
6 9 17 7 23 -2 8 -10 3 -19 -11z"/>
<path d="M3546 4448 l-8 -38 -89 0 c-60 0 -89 -4 -89 -11 0 -9 52 -11 188 -8
l187 4 3 -42 c4 -61 23 -53 21 8 l-2 50 -98 -3 -98 -3 -3 40 -4 40 -8 -37z"/>
<path d="M5570 4437 c0 -36 0 -36 -47 -40 -27 -2 -1 -3 57 -3 58 0 84 1 58 3
-39 3 -48 8 -49 24 -2 32 -4 37 -11 45 -5 4 -8 -9 -8 -29z"/>
<path d="M6060 4438 l-14 -37 -145 -4 -146 -3 153 -2 152 -2 11 27 c5 14 8 34
6 42 -2 10 -9 1 -17 -21z"/>
<path d="M2610 4435 c0 -23 -4 -25 -45 -25 -25 0 -45 -4 -45 -9 0 -4 31 -6 69
-3 65 4 71 3 96 -22 20 -20 25 -33 21 -52 -4 -13 -2 -24 4 -24 5 0 10 15 10
33 0 37 -19 59 -63 76 -17 7 -27 18 -27 31 0 11 -4 20 -10 20 -5 0 -10 -11
-10 -25z"/>
<path d="M6468 4438 c-3 -22 -7 -23 -158 -28 l-155 -6 163 -2 162 -2 0 30 c0
35 -7 40 -12 8z"/>
<path d="M6911 4432 c-11 -21 -18 -22 -139 -23 -70 0 -136 -4 -147 -9 -13 -6
34 -9 127 -7 122 2 150 5 164 19 9 9 14 22 12 29 -3 10 -8 7 -17 -9z"/>
<path d="M2365 4326 l6 -39 -110 7 c-76 5 -111 4 -111 -3 0 -7 29 -11 73 -11
41 0 156 -3 255 -7 l182 -6 0 -49 c0 -32 4 -47 11 -43 6 4 9 26 7 48 l-3 42
125 -3 c142 -4 161 -7 153 -28 -3 -7 0 -14 7 -14 6 0 10 10 8 23 -3 21 -9 22
-123 29 -66 4 -196 11 -290 15 l-170 8 -3 25 c-2 14 -8 30 -14 35 -7 7 -8 -2
-3 -29z"/>
<path d="M6310 4325 c0 -25 -1 -25 -80 -25 -47 0 -80 -4 -80 -10 0 -6 67 -10
180 -10 l180 0 0 -31 c0 -18 4 -28 10 -24 6 4 10 16 8 28 -3 21 2 22 70 25 92
4 97 24 5 22 -38 -1 -114 -1 -170 -1 -103 1 -103 1 -103 26 0 14 -4 25 -10 25
-5 0 -10 -11 -10 -25z"/>
<path d="M7200 4331 c0 -21 -32 -25 -309 -36 -68 -3 -127 -8 -130 -11 -3 -3
93 -3 214 1 183 6 222 10 233 23 15 19 16 42 2 42 -5 0 -10 -9 -10 -19z"/>
<path d="M7598 4292 c-27 -2 -48 -7 -48 -13 0 -10 19 -11 75 -1 51 10 34 18
-27 14z"/>
<path d="M6958 4219 c-3 -39 -5 -43 -30 -44 -14 0 -30 -4 -34 -8 -5 -4 67 -7
158 -7 92 1 172 -1 177 -5 6 -3 11 -15 11 -26 0 -10 5 -19 10 -19 12 0 12 0
-1 39 l-12 33 -126 -4 -126 -3 -6 38 c-9 53 -17 56 -21 6z"/>
<path d="M7575 4150 c-17 -33 -18 -40 -7 -40 4 0 15 14 24 31 10 17 22 27 28
24 5 -3 10 -1 10 4 0 24 -40 10 -55 -19z"/>
<path d="M6587 4163 c-87 -2 -136 -7 -132 -13 4 -7 58 -8 146 -4 l139 7 0 -26
c0 -15 5 -27 10 -27 6 0 8 11 4 25 -5 21 -3 25 16 25 11 0 18 5 15 10 -3 6
-18 9 -33 8 -15 -1 -89 -4 -165 -5z"/>
<path d="M2694 4152 c5 -8 136 -5 145 3 2 3 -30 5 -73 5 -42 0 -75 -4 -72 -8z"/>
<path d="M3089 4115 c-3 -2 -60 -5 -128 -6 -67 0 -134 -5 -149 -10 -16 -5 58
-6 173 -2 261 8 252 7 261 16 4 4 -29 7 -73 7 -44 0 -82 -2 -84 -5z"/>
<path d="M3300 4079 l-25 -40 -120 1 c-66 1 -169 0 -230 -1 -107 -3 -108 -3
-35 -8 l75 -6 6 -45 5 -45 5 45 4 45 154 5 155 5 19 32 c28 48 16 58 -13 12z"/>
<path d="M2513 4073 c8 -12 135 -38 143 -30 7 6 -52 24 -110 34 -26 4 -37 3
-33 -4z"/>
<path d="M3781 4059 c-1 -32 -16 -39 -82 -39 -27 0 -49 -4 -49 -8 0 -8 43 -7
208 4 96 7 103 18 9 15 -60 -2 -63 -1 -74 26 l-11 28 -1 -26z"/>
<path d="M5323 4068 c-2 -5 43 -8 101 -8 l106 0 0 -30 0 -30 -62 -1 c-35 0
-93 0 -130 0 -38 0 -68 -4 -68 -9 0 -6 96 -10 245 -10 153 0 245 4 245 10 0 5
-21 9 -47 8 -27 -1 -74 -1 -105 0 l-57 2 -3 36 -3 35 -108 2 c-60 1 -111 -1
-114 -5z"/>
<path d="M6449 4075 c-3 -2 -90 -4 -194 -5 -192 -1 -359 -9 -351 -17 8 -9 381
-3 519 8 143 11 255 2 286 -24 11 -10 13 -9 9 3 -7 23 -75 38 -174 39 -50 1
-93 -1 -95 -4z"/>
<path d="M7345 4019 c-5 -7 32 -10 124 -7 72 1 131 6 131 10 0 13 -248 10
-255 -3z"/>
<path d="M6240 4000 c-10 -7 9 -10 62 -10 42 0 80 5 83 10 8 13 -125 13 -145
0z"/>
<path d="M5870 3990 c0 -6 30 -10 70 -10 40 0 70 4 70 10 0 6 -30 10 -70 10
-40 0 -70 -4 -70 -10z"/>
<path d="M6045 3990 c-7 -12 15 -12 70 -1 l40 9 -52 1 c-28 0 -55 -3 -58 -9z"/>
<path d="M6414 3992 c5 -9 64 -7 73 2 4 3 -13 6 -36 6 -23 0 -40 -4 -37 -8z"/>
<path d="M2305 3920 l-70 -4 80 -6 80 -5 3 -42 c4 -48 0 -50 -93 -56 -27 -2
-14 -3 30 -3 l80 1 0 47 c1 26 4 50 8 54 4 4 35 6 70 5 34 -1 69 3 77 9 15 10
-111 11 -265 0z"/>
<path d="M4120 3870 c0 -6 30 -10 70 -10 40 0 70 4 70 10 0 6 -30 10 -70 10
-40 0 -70 -4 -70 -10z"/>
<path d="M7443 3873 c-51 -2 -93 -8 -93 -13 0 -12 38 -12 133 -3 37 3 67 10
67 14 0 5 -3 8 -7 7 -5 -1 -50 -4 -100 -5z"/>
<path d="M2940 3850 c-58 -4 -111 -8 -119 -9 -8 0 -11 -4 -7 -8 4 -4 37 -6 73
-4 l66 3 -6 -31 c-4 -18 -2 -31 3 -31 6 0 10 14 10 30 0 17 5 31 10 31 6 1 15
3 20 4 6 1 30 3 55 4 25 0 45 6 45 11 0 6 -10 9 -22 8 -13 -1 -70 -5 -128 -8z"/>
<path d="M2605 3843 c-11 -3 -24 -9 -30 -15 -13 -13 56 0 70 13 10 10 -5 10
-40 2z"/>
<path d="M4078 3742 c-5 -18 -15 -22 -69 -25 l-64 -3 67 -2 c74 -2 69 5 83
-105 l6 -48 75 2 c41 2 74 7 74 12 0 5 -29 7 -65 5 -36 -3 -67 -3 -69 1 -2 3
-6 34 -10 69 l-7 62 68 1 c106 1 125 17 21 18 -69 1 -89 4 -96 17 -8 14 -10
14 -14 -4z"/>
<path d="M2290 3719 c0 -5 6 -9 13 -9 6 0 30 -3 52 -6 27 -5 37 -3 30 3 -13
14 -95 24 -95 12z"/>
<path d="M2820 3710 c-25 -5 -12 -8 49 -9 46 0 82 1 79 5 -9 8 -90 11 -128 4z"/>
<path d="M6558 3655 c2 -14 6 -25 8 -25 2 0 4 11 4 25 0 14 -4 25 -9 25 -4 0
-6 -11 -3 -25z"/>
<path d="M7200 3670 c0 -6 27 -10 60 -10 33 0 60 4 60 10 0 6 -27 10 -60 10
-33 0 -60 -4 -60 -10z"/>
<path d="M7328 3610 c-64 -3 -120 -9 -124 -13 -11 -10 221 -6 238 4 21 13 8
14 -114 9z"/>
<path d="M6585 3594 c6 -2 46 -5 90 -6 l80 -3 6 -42 c3 -24 9 -46 14 -50 4 -5
5 15 1 44 l-7 52 33 4 c18 2 -25 4 -97 5 -71 0 -125 -1 -120 -4z"/>
<path d="M4185 3460 c-4 -6 12 -10 39 -10 25 0 46 3 46 8 0 11 -78 13 -85 2z"/>
<path d="M6690 3452 c0 -4 29 -8 65 -9 40 -1 63 2 60 7 -7 12 -125 13 -125 2z"/>
<path d="M4263 3350 c0 -25 2 -35 4 -22 2 12 2 32 0 45 -2 12 -4 2 -4 -23z"/>
<path d="M3415 2799 c-85 -8 -178 -31 -265 -66 -71 -27 -203 -94 -235 -119
-20 -15 -20 -15 1 -32 12 -9 42 -35 68 -56 l46 -39 98 45 c245 115 389 125
689 49 87 -22 172 -45 189 -51 64 -25 385 -112 479 -131 129 -26 346 -35 456
-20 108 16 240 49 415 105 272 87 420 116 597 116 190 0 363 -38 509 -110 l77
-39 63 51 c35 27 64 53 66 58 4 11 -40 41 -123 83 -143 73 -288 112 -470 127
-221 18 -440 -14 -730 -107 -491 -157 -635 -159 -1120 -16 -485 143 -632 171
-810 152z"/>
<path d="M3440 2344 c-25 -2 -71 -9 -103 -15 l-57 -12 32 -22 c18 -12 69 -41
113 -65 44 -23 85 -46 90 -50 6 -4 39 -11 75 -14 84 -9 212 -38 358 -80 65
-19 182 -53 262 -76 234 -68 350 -90 506 -97 205 -9 336 14 640 111 274 87
414 116 569 116 l91 0 124 63 c68 35 125 68 127 73 2 6 -32 15 -74 22 -286 42
-503 16 -893 -108 -279 -89 -354 -103 -525 -103 -195 0 -278 17 -695 143 -288
87 -498 124 -640 114z"/>
<path d="M2125 7731 c-42 -19 -135 -96 -135 -112 0 -5 28 -38 63 -75 34 -36
66 -72 70 -80 13 -23 31 -16 68 24 102 107 109 218 15 252 -37 13 -33 13 -81
-9z"/>
<path d="M1685 7248 c-206 -75 -200 -350 9 -449 204 -97 400 76 318 278 -49
120 -221 210 -327 171z"/>
<path d="M8180 6739 c-52 -28 -99 -55 -104 -59 -5 -5 2 -27 17 -52 71 -121
151 -158 224 -102 29 22 33 30 33 72 0 34 -10 69 -35 120 -19 40 -36 72 -37
72 -2 0 -46 -23 -98 -51z"/>
<path d="M1127 6078 c-82 -22 -172 -139 -192 -250 -8 -44 -14 -40 145 -88 58
-18 139 -43 180 -56 122 -39 121 -39 146 36 66 195 -11 346 -186 363 -30 3
-72 1 -93 -5z"/>
<path d="M1095 5225 c-16 -8 -64 -26 -105 -41 -41 -15 -79 -30 -83 -34 -4 -4
42 -37 104 -74 61 -37 114 -65 117 -62 5 5 20 144 21 199 1 30 -9 33 -54 12z"/>
<path d="M8329 4593 c-6 -15 -9 -62 -7 -103 4 -106 41 -150 123 -150 62 0 97
65 108 197 l5 61 -82 7 c-44 3 -93 8 -108 11 -24 5 -30 1 -39 -23z"/>
<path d="M8624 4544 c-9 -63 2 -144 24 -174 11 -14 33 -29 51 -34 65 -19 107
43 118 175 l6 66 -63 6 c-35 4 -78 7 -96 7 -31 0 -33 -2 -40 -46z"/>
<path d="M851 4436 c-13 -13 -26 -40 -31 -60 -9 -43 -1 -164 12 -172 6 -4 59
-1 119 6 l109 13 0 30 c0 56 -31 144 -62 176 -25 26 -38 31 -77 31 -37 0 -52
-5 -70 -24z"/>
<path d="M1242 3915 c-22 -10 -38 -27 -48 -52 -15 -34 -14 -43 6 -130 13 -51
26 -93 29 -93 3 0 52 12 109 27 67 18 102 32 102 41 0 28 -33 128 -53 161 -18
31 -69 62 -99 61 -7 -1 -28 -7 -46 -15z"/>
<path d="M955 3805 c-14 -13 -25 -36 -25 -50 0 -35 30 -168 40 -179 13 -14
180 34 180 52 0 40 -35 134 -62 166 -25 30 -36 36 -69 36 -29 0 -47 -7 -64
-25z"/>
<path d="M5758 1294 c-54 -29 -49 -106 7 -130 49 -20 71 -18 94 12 29 37 28
98 -1 118 -28 20 -65 20 -100 0z"/>
<path d="M5807 1062 c-15 -16 -30 -45 -34 -65 -4 -29 -1 -40 20 -61 45 -45
139 -28 163 30 24 57 -10 108 -81 119 -35 6 -43 3 -68 -23z"/>
<path d="M5337 1194 c-68 -67 -22 -179 72 -176 34 1 70 18 88 41 17 22 16 76
-2 112 -29 54 -114 67 -158 23z"/>
</g>
</svg>
